{
  "accessors": [
    {
      "bufferView": 2,
      "componentType": 5126,
      "count": 65532,
      "max": [
        8.0935297012329102,
        10.330439567565918,
        12.104700088500977
      ],
      "min": [
        -6.7069206237792969,
        -0.65542030334472656,
        -11.654209136962891
      ],
      "type": "VEC3"
    },
    {
      "bufferView": 2,
      "byteOffset": 786384,
      "componentType": 5126,
      "count": 65532,
      "max": [
        0.99995368719100952,
        0.99999946355819702,
        0.9999728798866272
      ],
      "min": [
        -0.99997550249099731,
        -0.99999386072158813,
        -0.99810236692428589
      ],
      "type": "VEC3"
    },
    {
      "bufferView": 3,
      "componentType": 5126,
      "count": 65532,
      "max": [
        0.99998247623443604,
        0.99999690055847168,
        0.99999809265136719,
        1
      ],
      "min": [
        -0.9999995231628418,
        -0.99994206428527832,
        -0.99935919046401978,
        -1
      ],
      "type": "VEC4"
    },
    {
      "bufferView": 1,
      "componentType": 5126,
      "count": 65532,
      "max": [
        0.94298380613327026,
        0.99915474653244019
      ],
      "min": [
        0.033424887806177139,
        0.16867370903491974
      ],
      "type": "VEC2"
    },
    {
      "bufferView": 0,
      "componentType": 5125,
      "count": 376287,
      "max": [
        65531
      ],
      "min": [
        0
      ],
      "type": "SCALAR"
    },
    {
      "bufferView": 2,
      "byteOffset": 1572768,
      "componentType": 5126,
      "count": 65532,
      "max": [
        8.8189592361450195,
        12.922510147094727,
        20.42683219909668
      ],
      "min": [
        -6.6705203056335449,
        -4.882596492767334,
        -15.316049575805664
      ],
      "type": "VEC3"
    },
    {
      "bufferView": 2,
      "byteOffset": 2359152,
      "componentType": 5126,
      "count": 65532,
      "max": [
        0.99996507167816162,
        0.99999523162841797,
        0.99997395277023315
      ],
      "min": [
        -0.99998688697814941,
        -0.99995815753936768,
        -0.99999535083770752
      ],
      "type": "VEC3"
    },
    {
      "bufferView": 3,
      "byteOffset": 1048512,
      "componentType": 5126,
      "count": 65532,
      "max": [
        0.99901163578033447,
        0.9999697208404541,
        0.99980795383453369,
        1
      ],
      "min": [
        -0.99994504451751709,
        -0.99994158744812012,
        -0.99983644485473633,
        -1
      ],
      "type": "VEC4"
    },
    {
      "bufferView": 1,
      "byteOffset": 524256,
      "componentType": 5126,
      "count": 65532,
      "max": [
        0.97357571125030518,
        0.99915969371795654
      ],
      "min": [
        0.09779319167137146,
        0.15757293999195099
      ],
      "type": "VEC2"
    },
    {
      "bufferView": 0,
      "byteOffset": 1505148,
      "componentType": 5125,
      "count": 369660,
      "max": [
        65531
      ],
      "min": [
        0
      ],
      "type": "SCALAR"
    },
    {
      "bufferView": 2,
      "byteOffset": 3145536,
      "componentType": 5126,
      "count": 65532,
      "max": [
        14.132256507873535,
        12.90349006652832,
        20.436147689819336
      ],
      "min": [
        -8.5929803848266602,
        -5.9756202697753906,
        -20.117500305175781
      ],
      "type": "VEC3"
    },
    {
      "bufferView": 2,
      "byteOffset": 3931920,
      "componentType": 5126,
      "count": 65532,
      "max": [
        0.99946457147598267,
        0.99984300136566162,
        0.99999439716339111
      ],
      "min": [
        -0.99994355440139771,
        -0.99997419118881226,
        -0.99997442960739136
      ],
      "type": "VEC3"
    },
    {
      "bufferView": 3,
      "byteOffset": 2097024,
      "componentType": 5126,
      "count": 65532,
      "max": [
        0.99993789196014404,
        0.99985533952713013,
        0.99889892339706421,
        1
      ],
      "min": [
        -0.99999117851257324,
        -0.99968278408050537,
        -0.99994057416915894,
        -1
      ],
      "type": "VEC4"
    },
    {
      "bufferView": 1,
      "byteOffset": 1048512,
      "componentType": 5126,
      "count": 65532,
      "max": [
        0.98254042863845825,
        0.99926584959030151
      ],
      "min": [
        0.012810474261641502,
        0.00085354706970974803
      ],
      "type": "VEC2"
    },
    {
      "bufferView": 0,
      "byteOffset": 2983788,
      "componentType": 5125,
      "count": 362544,
      "max": [
        65531
      ],
      "min": [
        0
      ],
      "type": "SCALAR"
    },
    {
      "bufferView": 2,
      "byteOffset": 4718304,
      "componentType": 5126,
      "count": 65532,
      "max": [
        14.832958221435547,
        12.919099807739258,
        20.433086395263672
      ],
      "min": [
        -10.941200256347656,
        -6.7819194793701172,
        -20.673799514770508
      ],
      "type": "VEC3"
    },
    {
      "bufferView": 2,
      "byteOffset": 5504688,
      "componentType": 5126,
      "count": 65532,
      "max": [
        0.99984419345855713,
        0.99998980760574341,
        0.99999439716339111
      ],
      "min": [
        -0.99995559453964233,
        -0.99997419118881226,
        -0.99999719858169556
      ],
      "type": "VEC3"
    },
    {
      "bufferView": 3,
      "byteOffset": 3145536,
      "componentType": 5126,
      "count": 65532,
      "max": [
        0.99986797571182251,
        0.99998003244400024,
        0.99967598915100098,
        1
      ],
      "min": [
        -0.99994486570358276,
        -0.99984067678451538,
        -0.99998176097869873,
        1
      ],
      "type": "VEC4"
    },
    {
      "bufferView": 1,
      "byteOffset": 1572768,
      "componentType": 5126,
      "count": 65532,
      "max": [
        0.99789834022521973,
        0.99921411275863647
      ],
      "min": [
        0.00076744781108573079,
        0.00075832678703591228
      ],
      "type": "VEC2"
    },
    {
      "bufferView": 0,
      "byteOffset": 4433964,
      "componentType": 5125,
      "count": 356130,
      "max": [
        65531
      ],
      "min": [
        0
      ],
      "type": "SCALAR"
    },
    {
      "bufferView": 2,
      "byteOffset": 6291072,
      "componentType": 5126,
      "count": 65532,
      "max": [
        14.756877899169922,
        12.211208343505859,
        20.150516510009766
      ],
      "min": [
        -12.130300521850586,
        -6.6901206970214844,
        -24.012100219726562
      ],
      "type": "VEC3"
    },
    {
      "bufferView": 2,
      "byteOffset": 7077456,
      "componentType": 5126,
      "count": 65532,
      "max": [
        0.99999397993087769,
        0.99999558925628662,
        0.99997818470001221
      ],
      "min": [
        -0.99997842311859131,
        -0.99994093179702759,
        -0.99996769428253174
      ],
      "type": "VEC3"
    },
    {
      "bufferView": 3,
      "byteOffset": 4194048,
      "componentType": 5126,
      "count": 65532,
      "max": [
        0.99998492002487183,
        0.99997925758361816,
        0.99994993209838867,
        1
      ],
      "min": [
        -0.9999459981918335,
        -0.99999159574508667,
        -0.99996870756149292,
        -1
      ],
      "type": "VEC4"
    },
    {
      "bufferView": 1,
      "byteOffset": 2097024,
      "componentType": 5126,
      "count": 65532,
      "max": [
        0.99665576219558716,
        0.99923926591873169
      ],
      "min": [
        0.0071125472895801067,
        0.0021222296636551619
      ],
      "type": "VEC2"
    },
    {
      "bufferView": 0,
      "byteOffset": 5858484,
      "componentType": 5125,
      "count": 351885,
      "max": [
        65531
      ],
      "min": [
        0
      ],
      "type": "SCALAR"
    },
    {
      "bufferView": 2,
      "byteOffset": 7863840,
      "componentType": 5126,
      "count": 44698,
      "max": [
        14.82234001159668,
        12.618314743041992,
        20.391098022460938
      ],
      "min": [
        -18.857101440429688,
        -11.813419342041016,
        -25.119199752807617
      ],
      "type": "VEC3"
    },
    {
      "bufferView": 2,
      "byteOffset": 8400216,
      "componentType": 5126,
      "count": 44698,
      "max": [
        0.99995666742324829,
        0.9997941255569458,
        0.99986368417739868
      ],
      "min": [
        -0.99990957975387573,
        -0.99997758865356445,
        -0.99987810850143433
      ],
      "type": "VEC3"
    },
    {
      "bufferView": 3,
      "byteOffset": 5242560,
      "componentType": 5126,
      "count": 44698,
      "max": [
        0.99995046854019165,
        0.99997025728225708,
        0.99994176626205444,
        1
      ],
      "min": [
        -0.99996453523635864,
        -0.99993181228637695,
        -0.99998807907104492,
        -1
      ],
      "type": "VEC4"
    },
    {
      "bufferView": 1,
      "byteOffset": 2621280,
      "componentType": 5126,
      "count": 44698,
      "max": [
        0.9984247088432312,
        0.99919754266738892
      ],
      "min": [
        0.0015987597871571779,
        0.005292222835123539
      ],
      "type": "VEC2"
    },
    {
      "bufferView": 0,
      "byteOffset": 7266024,
      "componentType": 5125,
      "count": 243516,
      "max": [
        44697
      ],
      "min": [
        0
      ],
      "type": "SCALAR"
    }
  ],
  "asset": {
    "extras": {
      "author": "3dhdscan (https://sketchfab.com/3dhdscan)",
      "license": "CC-BY-4.0 (http://creativecommons.org/licenses/by/4.0/)",
      "source": "https://sketchfab.com/models/a01f57189100463cbd9c75a127609e79",
      "title": "Warrior Toy"
    },
    "generator": "Sketchfab-3.19.4",
    "version": "2.0"
  },
  "bufferViews": [
    {
      "buffer": 0,
      "byteLength": 8240088,
      "byteOffset": 0,
      "name": "floatBufferViews",
      "target": 34963
    },
    {
      "buffer": 0,
      "byteLength": 2978864,
      "byteOffset": 8240088,
      "byteStride": 8,
      "name": "floatBufferViews",
      "target": 34962
    },
    {
      "buffer": 0,
      "byteLength": 8936592,
      "byteOffset": 11218952,
      "byteStride": 12,
      "name": "floatBufferViews",
      "target": 34962
    },
    {
      "buffer": 0,
      "byteLength": 5957728,
      "byteOffset": 20155544,
      "byteStride": 16,
      "name": "floatBufferViews",
      "target": 34962
    }
  ],
  "buffers": [
    {
      "byteLength": 26113272,
      "uri": "scene.bin"
    }
  ],
  "images": [
    {
      "uri": "textures/bojovnikDiffuseMap_baseColor.jpeg"
    },
    {
      "uri": "textures/bojovnikDiffuseMap_normal.jpeg"
    },
    {
      "uri": "textures/bojovnikDiffuseMap_metallicRoughness.png"
    }
  ],
  "materials": [
    {
      "doubleSided": true,
      "name": "bojovnikDiffuseMap",
      "normalTexture": {
        "index": 1,
        "scale": 1,
        "texCoord": 0
      },
      "occlusionTexture": {
        "index": 2,
        "strength": 1,
        "texCoord": 0
      },
      "pbrMetallicRoughness": {
        "baseColorFactor": [
          1,
          1,
          1,
          1
        ],
        "baseColorTexture": {
          "index": 0,
          "texCoord": 0
        },
        "metallicFactor": 0,
        "roughnessFactor": 0.48608993899999997
      }
    }
  ],
  "meshes": [
    {
      "name": "bojovnik_bojovnikDiffuseMap_0",
      "primitives": [
        {
          "attributes": {
            "NORMAL": 1,
            "POSITION": 0,
            "TANGENT": 2,
            "TEXCOORD_0": 3
          },
          "indices": 4,
          "material": 0,
          "mode": 4
        }
      ]
    },
    {
      "name": "bojovnik_bojovnikDiffuseMap_0",
      "primitives": [
        {
          "attributes": {
            "NORMAL": 6,
            "POSITION": 5,
            "TANGENT": 7,
            "TEXCOORD_0": 8
          },
          "indices": 9,
          "material": 0,
          "mode": 4
        }
      ]
    },
    {
      "name": "bojovnik_bojovnikDiffuseMap_0",
      "primitives": [
        {
          "attributes": {
            "NORMAL": 11,
            "POSITION": 10,
            "TANGENT": 12,
            "TEXCOORD_0": 13
          },
          "indices": 14,
          "material": 0,
          "mode": 4
        }
      ]
    },
    {
      "name": "bojovnik_bojovnikDiffuseMap_0",
      "primitives": [
        {
          "attributes": {
            "NORMAL": 16,
            "POSITION": 15,
            "TANGENT": 17,
            "TEXCOORD_0": 18
          },
          "indices": 19,
          "material": 0,
          "mode": 4
        }
      ]
    },
    {
      "name": "bojovnik_bojovnikDiffuseMap_0",
      "primitives": [
        {
          "attributes": {
            "NORMAL": 21,
            "POSITION": 20,
            "TANGENT": 22,
            "TEXCOORD_0": 23
          },
          "indices": 24,
          "material": 0,
          "mode": 4
        }
      ]
    },
    {
      "name": "bojovnik_bojovnikDiffuseMap_0",
      "primitives": [
        {
          "attributes": {
            "NORMAL": 26,
            "POSITION": 25,
            "TANGENT": 27,
            "TEXCOORD_0": 28
          },
          "indices": 29,
          "material": 0,
          "mode": 4
        }
      ]
    }
  ],
  "nodes": [
    {
      "children": [
        1
      ],
      "name": "RootNode (gltf orientation matrix)",
      "rotation": [
        -0.70710678118654746,
        -0,
        -0,
        0.70710678118654757
      ]
    },
    {
      "children": [
        2
      ],
      "matrix": [
        -1,
        0,
        0,
        0,
        0,
        -1,
        0,
        0,
        0,
        0,
        1,
        0,
        0.53864806890487671,
        4.244596004486084,
        0,
        1
      ],
      "name": "RootNode (model correction matrix)"
    },
    {
      "children": [
        3
      ],
      "matrix": [
        1,
        0,
        0,
        0,
        0,
        0,
        1,
        0,
        0,
        -1,
        0,
        0,
        0,
        0,
        0,
        1
      ],
      "name": "bojovnik_680k.FBX"
    },
    {
      "children": [
        4
      ],
      "name": "RootNode"
    },
    {
      "children": [
        5,
        6,
        7,
        8,
        9,
        10
      ],
      "matrix": [
        0.7934137478825567,
        -0.24224224369235933,
        0.55840247137870591,
        0,
        -0.57354939290040297,
        0.0096329111773633125,
        0.81911433934819389,
        0,
        -0.20380313681230228,
        -0.97016797637993624,
        -0.13129500764433266,
        0,
        1.6094655990600586,
        -0.076191306114196777,
        -1.6425095796585083,
        1
      ],
      "name": "bojovnik"
    },
    {
      "mesh": 0,
      "name": "bojovnik_bojovnikDiffuseMap_0"
    },
    {
      "mesh": 1,
      "name": "bojovnik_bojovnikDiffuseMap_0"
    },
    {
      "mesh": 2,
      "name": "bojovnik_bojovnikDiffuseMap_0"
    },
    {
      "mesh": 3,
      "name": "bojovnik_bojovnikDiffuseMap_0"
    },
    {
      "mesh": 4,
      "name": "bojovnik_bojovnikDiffuseMap_0"
    },
    {
      "mesh": 5,
      "name": "bojovnik_bojovnikDiffuseMap_0"
    }
  ],
  "samplers": [
    {
      "magFilter": 9729,
      "minFilter": 9987,
      "wrapS": 10497,
      "wrapT": 10497
    }
  ],
  "scene": 0,
  "scenes": [
    {
      "name": "OSG_Scene",
      "nodes": [
        0
      ]
    }
  ],
  "textures": [
    {
      "sampler": 0,
      "source": 0
    },
    {
      "sampler": 0,
      "source": 1
    },
    {
      "sampler": 0,
      "source": 2
    }
  ]
}

