{
  "accessors": [
    {
      "bufferView": 2,
      "componentType": 5126,
      "count": 27474,
      "max": [
        0.81695497035980225,
        0.61683601140975952,
        5.5793910026550293
      ],
      "min": [
        -1.0971139669418335,
        -0.55787199735641479,
        0.50029301643371582
      ],
      "type": "VEC3"
    },
    {
      "bufferView": 2,
      "byteOffset": 329688,
      "componentType": 5126,
      "count": 27474,
      "max": [
        0.99992901086807251,
        0.9998595118522644,
        0.99988037347793579
      ],
      "min": [
        -0.99998712539672852,
        -0.99997150897979736,
        -0.99999922513961792
      ],
      "type": "VEC3"
    },
    {
      "bufferView": 3,
      "componentType": 5126,
      "count": 27474,
      "max": [
        0.99997639656066895,
        0.99905270338058472,
        0.99999529123306274,
        1
      ],
      "min": [
        -0.99986767768859863,
        -0.99999803304672241,
        -0.99994933605194092,
        1
      ],
      "type": "VEC4"
    },
    {
      "bufferView": 1,
      "componentType": 5126,
      "count": 27474,
      "max": [
        0.99804002046585083,
        0.95568001270294189
      ],
      "min": [
        0.0019499999471008778,
        0.0019499999471008778
      ],
      "type": "VEC2"
    },
    {
      "bufferView": 0,
      "componentType": 5125,
      "count": 158592,
      "max": [
        27473
      ],
      "min": [
        0
      ],
      "type": "SCALAR"
    }
  ],
  "asset": {
    "extras": {
      "author": "gaelkerchy (https://sketchfab.com/gaelkerchy)",
      "license": "CC-BY-NC-4.0 (http://creativecommons.org/licenses/by-nc/4.0/)",
      "source": "https://sketchfab.com/models/32304ccc8e6b416c82007ef94b211680",
      "title": "Spiderman toy"
    },
    "generator": "Sketchfab-3.29.4-rc4",
    "version": "2.0"
  },
  "bufferViews": [
    {
      "buffer": 0,
      "byteLength": 634368,
      "byteOffset": 0,
      "name": "floatBufferViews",
      "target": 34963
    },
    {
      "buffer": 0,
      "byteLength": 219792,
      "byteOffset": 634368,
      "byteStride": 8,
      "name": "floatBufferViews",
      "target": 34962
    },
    {
      "buffer": 0,
      "byteLength": 659376,
      "byteOffset": 854160,
      "byteStride": 12,
      "name": "floatBufferViews",
      "target": 34962
    },
    {
      "buffer": 0,
      "byteLength": 439584,
      "byteOffset": 1513536,
      "byteStride": 16,
      "name": "floatBufferViews",
      "target": 34962
    }
  ],
  "buffers": [
    {
      "byteLength": 1953120,
      "uri": "scene.bin"
    }
  ],
  "images": [
    {
      "uri": "textures/spidermanStatue_003_bodySculptdefaultMat_metallicRoughness.png"
    },
    {
      "uri": "textures/spidermanStatue_003_bodySculptdefaultMat_baseColor.jpg"
    },
    {
      "uri": "textures/spidermanStatue_003_bodySculptdefaultMat_normal.png"
    }
  ],
  "materials": [
    {
      "doubleSided": true,
      "emissiveFactor": [
        0,
        0,
        0
      ],
      "name": "spidermanStatue_003_bodySculptdefaultMat",
      "normalTexture": {
        "index": 2,
        "scale": 1,
        "texCoord": 0
      },
      "occlusionTexture": {
        "index": 0,
        "strength": 0.45000000000000001,
        "texCoord": 0
      },
      "pbrMetallicRoughness": {
        "baseColorFactor": [
          1,
          1,
          1,
          1
        ],
        "baseColorTexture": {
          "index": 1,
          "texCoord": 0
        },
        "metallicFactor": 0.80000000000000004,
        "metallicRoughnessTexture": {
          "index": 0,
          "texCoord": 0
        },
        "roughnessFactor": 1
      }
    }
  ],
  "meshes": [
    {
      "primitives": [
        {
          "attributes": {
            "NORMAL": 1,
            "POSITION": 0,
            "TANGENT": 2,
            "TEXCOORD_0": 3
          },
          "indices": 4,
          "material": 0,
          "mode": 4
        }
      ]
    }
  ],
  "nodes": [
    {
      "children": [
        1
      ],
      "name": "RootNode (gltf orientation matrix)",
      "rotation": [
        -0.70710678118654746,
        -0,
        -0,
        0.70710678118654757
      ]
    },
    {
      "children": [
        2
      ],
      "name": "RootNode (model correction matrix)"
    },
    {
      "children": [
        3
      ],
      "name": "spidermanStatue_005.obj.cleaner"
    },
    {
      "mesh": 0,
      "name": ""
    }
  ],
  "samplers": [
    {
      "magFilter": 9729,
      "minFilter": 9987,
      "wrapS": 10497,
      "wrapT": 10497
    }
  ],
  "scene": 0,
  "scenes": [
    {
      "name": "OSG_Scene",
      "nodes": [
        0
      ]
    }
  ],
  "textures": [
    {
      "sampler": 0,
      "source": 0
    },
    {
      "sampler": 0,
      "source": 1
    },
    {
      "sampler": 0,
      "source": 2
    }
  ]
}

